<svg width="127" height="114" viewBox="0 0 127 114" fill="none" xmlns="http://www.w3.org/2000/svg">
<g id="Group">
<g id="Group_2">
<g id="Group_3">
<g id="Group_4">
<path id="Vector" d="M6.48349 114H1.35442C0.607139 114 0 113.393 0 112.646C0 111.899 0.607139 111.292 1.35442 111.292H6.48349C7.23077 111.292 7.83791 111.899 7.83791 112.646C7.83791 113.393 7.23077 114 6.48349 114Z" fill="#F0F0F0"/>
</g>
<g id="Group_5">
<path id="Vector_2" d="M6.48349 100.086H1.35442C0.607139 100.086 0 99.4788 0 98.7317C0 97.9847 0.607139 97.3777 1.35442 97.3777H6.48349C7.23077 97.3777 7.83791 97.9847 7.83791 98.7317C7.83791 99.4788 7.23077 100.086 6.48349 100.086Z" fill="#F0F0F0"/>
</g>
<g id="Group_6">
<path id="Vector_3" d="M6.48349 86.1758H1.35442C0.607139 86.1758 0 85.5688 0 84.8217C0 84.0746 0.607139 83.4677 1.35442 83.4677H6.48349C7.23077 83.4677 7.83791 84.0746 7.83791 84.8217C7.83791 85.5688 7.23077 86.1758 6.48349 86.1758Z" fill="#F0F0F0"/>
</g>
<g id="Group_7">
<path id="Vector_4" d="M6.48349 72.266H1.35442C0.607139 72.266 0 71.659 0 70.9119C0 70.1649 0.607139 69.5579 1.35442 69.5579H6.48349C7.23077 69.5579 7.83791 70.1649 7.83791 70.9119C7.83791 71.659 7.23077 72.266 6.48349 72.266Z" fill="#F0F0F0"/>
</g>
<g id="Group_8">
<path id="Vector_5" d="M6.48349 58.3558H1.35442C0.607139 58.3558 0 57.7488 0 57.0018C0 56.2547 0.607139 55.6477 1.35442 55.6477H6.48349C7.23077 55.6477 7.83791 56.2547 7.83791 57.0018C7.83791 57.7488 7.23077 58.3558 6.48349 58.3558Z" fill="#F0F0F0"/>
</g>
<g id="Group_9">
<path id="Vector_6" d="M6.48349 44.4421H1.35442C0.607139 44.4421 0 43.8351 0 43.0881C0 42.341 0.607139 41.734 1.35442 41.734H6.48349C7.23077 41.734 7.83791 42.341 7.83791 43.0881C7.83791 43.8351 7.23077 44.4421 6.48349 44.4421Z" fill="#F0F0F0"/>
</g>
<g id="Group_10">
<path id="Vector_7" d="M6.48349 30.5323H1.35442C0.607139 30.5323 0 29.9253 0 29.1783C0 28.4312 0.607139 27.8242 1.35442 27.8242H6.48349C7.23077 27.8242 7.83791 28.4312 7.83791 29.1783C7.83791 29.9253 7.23077 30.5323 6.48349 30.5323Z" fill="#F0F0F0"/>
</g>
<g id="Group_11">
<path id="Vector_8" d="M6.48349 16.6225H1.35442C0.607139 16.6225 0 16.0155 0 15.2685C0 14.5214 0.607139 13.9144 1.35442 13.9144H6.48349C7.23077 13.9144 7.83791 14.5214 7.83791 15.2685C7.83791 16.0155 7.23077 16.6225 6.48349 16.6225Z" fill="#F0F0F0"/>
</g>
<g id="Group_12">
<path id="Vector_9" d="M6.48349 2.70811H1.35442C0.607139 2.70811 0 2.10112 0 1.35406C0 0.606991 0.607139 0 1.35442 0H6.48349C7.23077 0 7.83791 0.606991 7.83791 1.35406C7.83791 2.10537 7.23077 2.70811 6.48349 2.70811Z" fill="#F0F0F0"/>
</g>
</g>
<g id="Group_13">
<path id="Vector_10" d="M125.646 114H21.9697C21.2224 114 20.6152 113.393 20.6152 112.646C20.6152 111.899 21.2224 111.292 21.9697 111.292H125.646C126.393 111.292 127 111.899 127 112.646C127 113.393 126.393 114 125.646 114Z" fill="#F0F0F0"/>
</g>
<g id="Group_14">
<path id="Vector_11" d="M125.643 104.008H109.534C108.787 104.008 108.18 103.401 108.18 102.654C108.18 101.907 108.787 101.3 109.534 101.3H125.643C126.39 101.3 126.997 101.907 126.997 102.654C126.997 103.401 126.39 104.008 125.643 104.008Z" fill="#DB9641"/>
</g>
<g id="Group_15">
<path id="Vector_12" d="M1.35442 114C0.607139 114 0 113.393 0 112.645V1.35406C0 0.606991 0.607139 0 1.35442 0C2.10169 0 2.70889 0.606991 2.70889 1.35406V112.641C2.70889 113.393 2.10169 114 1.35442 114Z" fill="#F0F0F0"/>
</g>
<g id="Group_16">
<path id="Vector_13" d="M117.843 14.284C117.096 14.284 116.488 13.677 116.488 12.93V2.71299H106.269C105.521 2.71299 104.914 2.106 104.914 1.35894C104.914 0.611874 105.521 0.00488281 106.269 0.00488281H117.843C118.59 0.00488281 119.197 0.611874 119.197 1.35894V12.93C119.202 13.677 118.594 14.284 117.843 14.284Z" fill="#DB9641"/>
</g>
<g id="Group_17">
<path id="Vector_14" d="M117.847 104.008C117.099 104.008 116.492 103.401 116.492 102.654V22.4295C116.492 21.6824 117.099 21.0754 117.847 21.0754C118.594 21.0754 119.201 21.6824 119.201 22.4295V102.654C119.205 103.405 118.598 104.008 117.847 104.008Z" fill="#DB9641"/>
</g>
</g>
<g id="Group_18">
<g id="Group_19">
<g id="Group_20">
<path id="Vector_15" d="M95.6392 85.7045C94.8919 85.7045 94.2847 85.0975 94.2847 84.3504V20.7311L62.4447 5.90864L28.4394 20.7565V62.4776C28.4394 63.2246 27.8322 63.8316 27.0849 63.8316C26.3377 63.8316 25.7305 63.2246 25.7305 62.4776V19.8694C25.7305 19.3303 26.0489 18.8422 26.5414 18.63L61.9182 3.18353C62.2749 3.02648 62.6783 3.03074 63.0349 3.19628L96.2124 18.6427C96.6922 18.8634 96.9936 19.3431 96.9936 19.8694V84.3547C96.9936 85.1017 96.3865 85.7045 95.6392 85.7045Z" fill="#F0F0F0"/>
</g>
<g id="Group_21">
<g id="Group_22">
<g id="Group_23">
<path id="Vector_16" d="M27.0813 85.7085C26.559 85.7085 26.0622 85.4029 25.8372 84.8978C25.5357 84.2101 25.8499 83.4121 26.5378 83.115L30.6775 81.3068C31.3654 81.0054 32.1636 81.3195 32.4608 82.0071C32.7622 82.6905 32.4481 83.4928 31.7603 83.7899L27.6205 85.5981C27.4464 85.6703 27.2638 85.7085 27.0813 85.7085Z" fill="#F0F0F0"/>
</g>
<g id="Group_24">
<path id="Vector_17" d="M40.2512 79.9569C39.7289 79.9569 39.2322 79.6513 39.0071 79.1461C38.7057 78.4585 39.0199 77.6605 39.7077 77.3634L48.743 73.4201C49.4308 73.1187 50.229 73.4328 50.5262 74.1204C50.8277 74.8081 50.5135 75.6061 49.8257 75.9032L40.7904 79.8465C40.612 79.9187 40.4295 79.9569 40.2512 79.9569Z" fill="#F0F0F0"/>
</g>
<g id="Group_25">
<path id="Vector_18" d="M58.3234 72.0659C57.8012 72.0659 57.3044 71.7603 57.0794 71.2509C56.7779 70.5675 57.0921 69.7653 57.7799 69.4682L61.9197 67.6599C62.6075 67.3585 63.4058 67.6727 63.703 68.3603C64.0044 69.0479 63.6902 69.8459 63.0024 70.1431L58.8627 71.9513C58.6886 72.0319 58.5017 72.0659 58.3234 72.0659Z" fill="#F0F0F0"/>
</g>
</g>
</g>
<g id="Group_26">
<path id="Vector_19" d="M62.4576 36.4453C62.2708 36.4453 62.0882 36.4071 61.9141 36.3307L26.5373 20.8843C25.8537 20.5829 25.5395 19.7849 25.8367 19.1015C26.1339 18.4181 26.9322 18.104 27.62 18.4011L62.4364 33.6014L95.0618 18.4139C95.7412 18.0998 96.5479 18.3927 96.8621 19.0718C97.1763 19.751 96.8833 20.5575 96.204 20.8716L63.0265 36.318C62.8482 36.4028 62.6529 36.4453 62.4576 36.4453Z" fill="#F0F0F0"/>
</g>
<g id="Group_27">
<path id="Vector_20" d="M62.4599 101.172C61.7126 101.172 61.1055 100.565 61.1055 99.8179V35.0865C61.1055 34.3394 61.7126 33.7324 62.4599 33.7324C63.2072 33.7324 63.8144 34.3394 63.8144 35.0865V99.8137C63.8144 100.565 63.2114 101.172 62.4599 101.172Z" fill="#F0F0F0"/>
</g>
<g id="Group_28">
<path id="Vector_21" d="M62.4576 101.172C62.2708 101.172 62.0882 101.134 61.9141 101.057L26.5373 85.6111C25.8537 85.3097 25.5395 84.5117 25.8367 83.8283C26.1339 83.1449 26.9322 82.8265 27.62 83.1279L62.4364 98.3281L95.0618 83.1406C95.7412 82.8265 96.5479 83.1194 96.8621 83.7986C97.1763 84.4777 96.8833 85.2842 96.204 85.5983L63.0265 101.045C62.8482 101.13 62.6529 101.172 62.4576 101.172Z" fill="#F0F0F0"/>
</g>
</g>
<g id="Group_29">
<path id="Vector_22" d="M62.4577 49.544C62.1945 49.544 61.927 49.4676 61.6935 49.3063C61.0778 48.8818 60.9207 48.0414 61.341 47.4216L74.5373 28.1762C74.9577 27.5607 75.8026 27.3994 76.4225 27.8239C77.0381 28.2484 77.1952 29.0888 76.7749 29.7086L63.5786 48.954C63.3154 49.3402 62.8908 49.544 62.4577 49.544Z" fill="#F0F0F0"/>
</g>
<g id="Group_30">
<path id="Vector_23" d="M62.4577 67.4097C62.1945 67.4097 61.927 67.3333 61.6935 67.172C61.0778 66.7475 60.9207 65.9071 61.341 65.2874L92.5272 19.7971C92.9475 19.1816 93.7924 19.0203 94.4123 19.4448C95.028 19.8692 95.1851 20.7097 94.7647 21.3294L63.5786 66.8197C63.3154 67.206 62.8908 67.4097 62.4577 67.4097Z" fill="#F0F0F0"/>
</g>
<g id="Group_31">
<path id="Vector_24" d="M62.4577 85.276C62.1945 85.276 61.927 85.1996 61.6935 85.0383C61.0778 84.6138 60.9207 83.7734 61.341 83.1536L94.5185 34.76C94.9431 34.1445 95.7838 33.9832 96.4037 34.4077C97.0193 34.8321 97.1764 35.6726 96.7561 36.2923L63.5786 84.686C63.3154 85.0722 62.8908 85.276 62.4577 85.276Z" fill="#F0F0F0"/>
</g>
<g id="Group_32">
<path id="Vector_25" d="M64.446 100.243C64.1828 100.243 63.9152 100.166 63.6817 100.005C63.0661 99.5805 62.909 98.7401 63.3293 98.1203L94.5197 52.6215C94.9443 52.0061 95.785 51.8448 96.4049 52.2692C97.0205 52.6937 97.1776 53.5341 96.7573 54.1539L65.5669 99.6527C65.3037 100.039 64.8791 100.243 64.446 100.243Z" fill="#F0F0F0"/>
</g>
<g id="Group_33">
<path id="Vector_26" d="M82.4362 91.8722C82.173 91.8722 81.9055 91.7958 81.672 91.6345C81.0563 91.2101 80.8992 90.3696 81.3196 89.7499L94.52 70.4918C94.9446 69.8763 95.7853 69.715 96.4052 70.1395C97.0209 70.5639 97.178 71.4044 96.7576 72.0241L83.5572 91.2823C83.2897 91.6643 82.8651 91.8722 82.4362 91.8722Z" fill="#F0F0F0"/>
</g>
</g>
</g>
</svg>
