<svg width="141" height="116" viewBox="0 0 141 116" fill="none" xmlns="http://www.w3.org/2000/svg">
<g id="Group">
<g id="Group_2">
<g id="Group_3">
<g id="Group_4">
<g id="Group_5">
<path id="Vector" d="M55.9146 48.5093C55.6893 48.5093 55.4641 48.4539 55.2559 48.3347C54.6014 47.9684 54.3677 47.1423 54.7332 46.4864L59.7392 37.5093C60.1047 36.8535 60.9292 36.6193 61.5836 36.9855C62.238 37.3517 62.4717 38.1779 62.1063 38.8337L57.1002 47.8109C56.8495 48.258 56.3863 48.5093 55.9146 48.5093Z" fill="#F0F0F0"/>
</g>
<g id="Group_6">
<path id="Vector_2" d="M45.3617 107.197C45.196 107.197 45.026 107.167 44.8645 107.099C44.1676 106.822 43.8276 106.034 44.1038 105.336L68.4243 43.8164C68.7005 43.118 69.4868 42.7773 70.1837 43.0541C70.8807 43.3309 71.2206 44.1188 70.9444 44.8172L46.6238 106.337C46.4113 106.873 45.9014 107.197 45.3617 107.197Z" fill="#F0F0F0"/>
</g>
</g>
<g id="Group_7">
<path id="Vector_3" d="M45.3647 107.197C45.284 107.197 45.2033 107.189 45.1226 107.176C44.3874 107.044 43.8944 106.337 44.0304 105.596L54.5822 46.9083C54.7139 46.1715 55.4151 45.6733 56.1588 45.8138C56.894 45.9458 57.3868 46.6527 57.2509 47.3937L46.6991 106.081C46.5802 106.737 46.0064 107.197 45.3647 107.197Z" fill="#F0F0F0"/>
</g>
</g>
</g>
<g id="Group_8">
<g id="Group_9">
<g id="Group_10">
<g id="Group_11">
<path id="Vector_4" d="M86.221 48.5103C85.745 48.5103 85.2818 48.259 85.0353 47.8119L79.3621 37.6423C78.9966 36.9865 79.2303 36.1603 79.8848 35.7941C80.5392 35.4278 81.3637 35.6621 81.7291 36.3179L87.4024 46.4875C87.7679 47.1433 87.5342 47.9694 86.8797 48.3357C86.6715 48.4549 86.4462 48.5103 86.221 48.5103Z" fill="#F0F0F0"/>
</g>
<g id="Group_12">
<path id="Vector_5" d="M96.7609 107.198C96.2212 107.198 95.7112 106.874 95.4987 106.338L71.1273 44.6776C70.851 43.9792 71.191 43.1914 71.888 42.9146C72.5849 42.6378 73.371 42.9784 73.6473 43.6768L98.0188 105.337C98.295 106.035 97.955 106.823 97.2581 107.1C97.0966 107.168 96.9309 107.198 96.7609 107.198Z" fill="#F0F0F0"/>
</g>
</g>
<g id="Group_13">
<path id="Vector_6" d="M96.7632 107.198C96.1215 107.198 95.5477 106.738 95.4287 106.078L84.8769 47.3902C84.7452 46.6492 85.2339 45.9422 85.9691 45.8102C86.7 45.6782 87.4097 46.1679 87.5457 46.9047L98.0975 105.592C98.2292 106.333 97.7405 107.04 97.0053 107.172C96.9246 107.194 96.8439 107.198 96.7632 107.198Z" fill="#F0F0F0"/>
</g>
</g>
</g>
<g id="Group_14">
<g id="Group_15">
<path id="Vector_7" d="M25.8818 105.566C25.3846 105.566 24.9086 105.294 24.6706 104.821L1.02585 57.9169C1.01735 57.8956 1.00457 57.8785 0.996075 57.8572C-1.95315 51.2266 2.10945 45.4434 7.13248 42.8712C12.538 40.1074 20.2595 40.414 24.4326 47.6324C24.4879 47.726 24.5261 47.824 24.5601 47.922L39.5698 98.1734C39.7823 98.8846 39.3827 99.6383 38.6731 99.8598C37.9634 100.081 37.207 99.6894 36.9775 98.9825C36.1615 96.4614 34.6147 94.8815 32.6131 94.5365C30.7263 94.2086 28.7078 95.0348 27.4669 96.6445C26.634 97.7262 25.4823 100.073 27.1056 103.641C27.4116 104.314 27.1269 105.111 26.4597 105.43C26.277 105.519 26.0773 105.566 25.8818 105.566ZM3.46512 56.7202L24.0077 97.475C24.2966 96.5849 24.7386 95.7459 25.3251 94.9837C27.1694 92.5861 30.2164 91.3553 33.0806 91.8579C33.7691 91.9771 34.4235 92.19 35.0397 92.4924L22.0061 48.8631C18.6872 43.2758 12.7803 43.0373 8.36919 45.2944C4.45955 47.2917 1.25958 51.7206 3.46512 56.7202Z" fill="#F0F0F0"/>
</g>
<g id="Group_16">
<path id="Vector_8" d="M42.188 116C35.5544 116 30.7354 115.033 25.3129 106.235C25.2831 106.184 25.2534 106.128 25.2279 106.073L24.6414 104.757C24.3354 104.072 24.6457 103.267 25.3299 102.96C26.0141 102.654 26.8172 102.964 27.1232 103.65L27.6714 104.881C32.9919 113.47 37.2415 113.385 44.9375 113.245C46.0084 113.223 47.1134 113.202 48.299 113.202H70.5075C71.2554 113.202 71.8631 113.811 71.8631 114.561C71.8631 115.31 71.2554 115.919 70.5075 115.919H48.299C47.1389 115.919 46.0467 115.94 44.9928 115.962C44.0154 115.983 43.0847 116 42.188 116Z" fill="#F0F0F0"/>
</g>
<g id="Group_17">
<path id="Vector_9" d="M115.129 105.566C114.933 105.566 114.729 105.524 114.542 105.43C113.875 105.111 113.59 104.314 113.896 103.641C115.524 100.077 114.368 97.7263 113.535 96.6446C112.298 95.0348 110.28 94.2087 108.389 94.5366C106.391 94.8858 104.84 96.4657 104.024 98.9825C103.795 99.6895 103.038 100.081 102.329 99.8598C101.619 99.6384 101.22 98.8846 101.432 98.1735L116.442 47.922C116.471 47.8198 116.514 47.7218 116.569 47.6324C120.742 40.4141 128.464 40.1032 133.869 42.8713C138.892 45.4392 142.955 51.2267 140.006 57.8573C139.997 57.8786 139.989 57.8956 139.976 57.9169L116.331 104.821C116.102 105.29 115.621 105.566 115.129 105.566ZM109.204 91.7472C111.665 91.7472 114.109 92.9396 115.681 94.9837C116.267 95.746 116.709 96.585 116.998 97.475L137.541 56.7202C139.742 51.7206 136.547 47.296 132.637 45.2944C128.226 43.0374 122.319 43.2759 119 48.8631L105.966 92.4924C106.583 92.1901 107.237 91.9772 107.925 91.8579C108.35 91.7855 108.78 91.7472 109.204 91.7472Z" fill="#F0F0F0"/>
</g>
<g id="Group_18">
<path id="Vector_10" d="M98.8212 116C97.9245 116 96.9939 115.983 96.0208 115.961C94.9626 115.94 93.8704 115.919 92.7146 115.919H70.5061C69.7582 115.919 69.1504 115.31 69.1504 114.56C69.1504 113.811 69.7582 113.202 70.5061 113.202H92.7146C93.9002 113.202 95.0051 113.223 96.076 113.244C103.772 113.385 108.026 113.47 113.342 104.88L113.89 103.65C114.196 102.964 114.995 102.657 115.684 102.96C116.368 103.266 116.674 104.067 116.372 104.757L115.786 106.073C115.76 106.128 115.735 106.183 115.701 106.235C110.274 115.029 105.455 116 98.8212 116Z" fill="#F0F0F0"/>
</g>
</g>
<g id="Group_19">
<path id="Vector_11" d="M70.4975 45.7121C63.9446 45.7121 58.6113 40.3675 58.6113 33.7965C58.6113 27.2298 63.9446 21.8853 70.4975 21.8853C77.0546 21.8853 82.3879 27.2298 82.3879 33.7965C82.3879 40.3675 77.0546 45.7121 70.4975 45.7121ZM70.4975 24.6022C65.4362 24.6022 61.3225 28.7288 61.3225 33.7965C61.3225 38.8685 65.4404 42.9908 70.4975 42.9908C75.5545 42.9908 79.6723 38.8643 79.6723 33.7965C79.6723 28.7245 75.5588 24.6022 70.4975 24.6022Z" fill="#F0F0F0"/>
</g>
<g id="Group_20">
<path id="Vector_12" d="M70.502 38.3017C68.0245 38.3017 66.0059 36.2789 66.0059 33.7961C66.0059 31.3133 68.0202 29.2905 70.502 29.2905C72.9837 29.2905 74.998 31.3091 74.998 33.7961C74.998 36.2789 72.9837 38.3017 70.502 38.3017ZM70.502 32.0117C69.5203 32.0117 68.7214 32.8124 68.7214 33.7961C68.7214 34.7798 69.5203 35.5804 70.502 35.5804C71.4836 35.5804 72.2825 34.7798 72.2825 33.7961C72.2868 32.8124 71.4879 32.0117 70.502 32.0117Z" fill="#DB9641"/>
</g>
<g id="Group_21">
<path id="Vector_13" d="M67.6361 24.9979C66.9349 24.9979 66.3441 24.4614 66.2846 23.7502L64.4574 1.46919C64.4276 1.09018 64.555 0.715456 64.81 0.438648C65.065 0.15758 65.4305 0 65.8087 0H75.1919C75.5701 0 75.9313 0.15758 76.1905 0.438648C76.4455 0.719715 76.5772 1.09018 76.5432 1.46919L74.7159 23.7459C74.6564 24.4954 74.002 25.049 73.254 24.9894C72.5061 24.9298 71.9537 24.2697 72.0132 23.5245L73.7214 2.72125H67.2833L68.9917 23.5287C69.0512 24.2783 68.4988 24.9341 67.7508 24.9937C67.7083 24.9979 67.6743 24.9979 67.6361 24.9979Z" fill="#F0F0F0"/>
</g>
<g id="Group_22">
<path id="Vector_14" d="M86.2182 71.1953H55.9142C55.1663 71.1953 54.5586 70.5863 54.5586 69.8368C54.5586 69.0873 55.1663 68.4783 55.9142 68.4783H86.2182C86.9661 68.4783 87.5738 69.0873 87.5738 69.8368C87.5738 70.5863 86.9661 71.1953 86.2182 71.1953Z" fill="#F0F0F0"/>
</g>
<g id="Group_23">
<path id="Vector_15" d="M80.3824 65.7487H61.7521C61.0042 65.7487 60.3965 65.1397 60.3965 64.3902C60.3965 63.6407 61.0042 63.0317 61.7521 63.0317H80.3824C81.1303 63.0317 81.738 63.6407 81.738 64.3902C81.738 65.1397 81.1303 65.7487 80.3824 65.7487Z" fill="#F0F0F0"/>
</g>
<g id="Group_24">
<path id="Vector_16" d="M52.8209 65.7487H28.0626C27.3147 65.7487 26.707 65.1397 26.707 64.3902C26.707 63.6407 27.3147 63.0317 28.0626 63.0317H52.8209C53.5688 63.0317 54.1765 63.6407 54.1765 64.3902C54.1765 65.1397 53.5688 65.7487 52.8209 65.7487Z" fill="#F0F0F0"/>
</g>
<g id="Group_25">
<path id="Vector_17" d="M112.944 65.7487H89.3166C88.5687 65.7487 87.9609 65.1397 87.9609 64.3902C87.9609 63.6407 88.5687 63.0317 89.3166 63.0317H112.944C113.692 63.0317 114.3 63.6407 114.3 64.3902C114.3 65.1397 113.692 65.7487 112.944 65.7487Z" fill="#F0F0F0"/>
</g>
</g>
</svg>
