<svg width="133" height="113" viewBox="0 0 133 113" fill="none" xmlns="http://www.w3.org/2000/svg">
<g id="Group">
<g id="Group_2">
<path id="Vector" d="M36.1197 12.5896C35.3726 12.5896 34.7656 11.9812 34.7656 11.2323V1.35724C34.7656 0.60842 35.3726 0 36.1197 0C36.8667 0 37.4737 0.60842 37.4737 1.35724V11.2323C37.4737 11.9812 36.8667 12.5896 36.1197 12.5896Z" fill="#F0F0F0"/>
</g>
<g id="Group_3">
<path id="Vector_2" d="M66.4986 12.5896C65.7515 12.5896 65.1445 11.9812 65.1445 11.2323V1.35724C65.1445 0.60842 65.7515 0 66.4986 0C67.2456 0 67.8526 0.60842 67.8526 1.35724V11.2323C67.8526 11.9812 67.2499 12.5896 66.4986 12.5896Z" fill="#F0F0F0"/>
</g>
<g id="Group_4">
<path id="Vector_3" d="M81.9908 61.9992C81.2437 61.9992 80.6367 61.3908 80.6367 60.642V11.2324C80.6367 10.4835 81.2437 9.87512 81.9908 9.87512C82.7378 9.87512 83.3448 10.4835 83.3448 11.2324V60.642C83.349 61.3908 82.7421 61.9992 81.9908 61.9992Z" fill="#F0F0F0"/>
</g>
<g id="Group_5">
<path id="Vector_4" d="M91.9191 61.9999H81.9908C81.2437 61.9999 80.6367 61.3913 80.6367 60.6423C80.6367 59.8933 81.2437 59.2847 81.9908 59.2847H91.9191C92.6662 59.2847 93.2732 59.8933 93.2732 60.6423C93.2774 61.3913 92.6704 61.9999 91.9191 61.9999Z" fill="#F0F0F0"/>
</g>
<g id="Group_6">
<path id="Vector_5" d="M121.794 61.9999H108.419C107.672 61.9999 107.064 61.3913 107.064 60.6423C107.064 59.8933 107.672 59.2847 108.419 59.2847H121.794C122.541 59.2847 123.148 59.8933 123.148 60.6423C123.148 61.3913 122.541 61.9999 121.794 61.9999Z" fill="#F0F0F0"/>
</g>
<g id="Group_7">
<path id="Vector_6" d="M81.9906 43.4368H75.2329C74.4859 43.4368 73.8789 42.8282 73.8789 42.0792C73.8789 41.3302 74.4859 40.7216 75.2329 40.7216H81.9906C82.7377 40.7216 83.3447 41.3302 83.3447 42.0792C83.3447 42.8282 82.7419 43.4368 81.9906 43.4368Z" fill="#F0F0F0"/>
</g>
<g id="Group_8">
<path id="Vector_7" d="M55.9792 43.4371H30.2349C29.4878 43.4371 28.8809 42.8285 28.8809 42.0794C28.8809 41.3304 29.4878 40.7218 30.2349 40.7218H55.9792C56.7263 40.7218 57.3333 41.3304 57.3333 42.0794C57.3333 42.8285 56.7263 43.4371 55.9792 43.4371Z" fill="#F0F0F0"/>
</g>
<g id="Group_9">
<path id="Vector_8" d="M30.2349 74.989C29.4878 74.989 28.8809 74.3806 28.8809 73.6318V42.079C28.8809 41.3302 29.4878 40.7218 30.2349 40.7218C30.982 40.7218 31.589 41.3302 31.589 42.079V73.6318C31.589 74.3806 30.9862 74.989 30.2349 74.989Z" fill="#F0F0F0"/>
</g>
<g id="Group_10">
<path id="Vector_9" d="M30.2349 102.925C29.4878 102.925 28.8809 102.316 28.8809 101.567V90.7648C28.8809 90.016 29.4878 89.4076 30.2349 89.4076C30.982 89.4076 31.589 90.016 31.589 90.7648V101.567C31.589 102.316 30.9862 102.925 30.2349 102.925Z" fill="#F0F0F0"/>
</g>
<g id="Group_11">
<path id="Vector_10" d="M30.2377 61.9999H12.3462C11.5992 61.9999 10.9922 61.3913 10.9922 60.6423C10.9922 59.8933 11.5992 59.2847 12.3462 59.2847H30.2377C30.9848 59.2847 31.5919 59.8933 31.5919 60.6423C31.5919 61.3913 30.989 61.9999 30.2377 61.9999Z" fill="#F0F0F0"/>
</g>
<g id="Group_12">
<path id="Vector_11" d="M50.8781 113C50.2839 113 49.7405 112.609 49.575 112.004C49.3755 111.281 49.7957 110.532 50.5173 110.332L68.2518 105.384C68.9734 105.184 69.7205 105.605 69.92 106.329C70.1195 107.052 69.6992 107.801 68.9776 108.001L51.2432 112.949C51.1244 112.983 51.0012 113 50.8781 113Z" fill="#F0F0F0"/>
</g>
<g id="Group_13">
<path id="Vector_12" d="M131.642 112.987H68.6118C67.8647 112.987 67.2577 112.379 67.2577 111.63V101.755C67.2577 101.006 67.8647 100.398 68.6118 100.398H120.436V12.5896H12.5602V100.398H38.2408C38.9878 100.398 39.5948 101.006 39.5948 101.755V111.63C39.5948 112.379 38.9878 112.987 38.2408 112.987H1.35415C0.607074 112.987 0 112.379 0 111.63V1.35724C0 0.60842 0.607074 0 1.35415 0H131.646C132.393 0 133 0.60842 133 1.35724V111.63C132.996 112.383 132.389 112.987 131.642 112.987ZM69.9658 110.273H130.288V2.71446H2.70394V110.273H36.8825V103.112H11.2019C10.4548 103.112 9.84784 102.504 9.84784 101.755V11.2323C9.84784 10.4835 10.4548 9.87509 11.2019 9.87509H121.79C122.537 9.87509 123.144 10.4835 123.144 11.2323V101.755C123.144 102.504 122.537 103.112 121.79 103.112H69.9658V110.273Z" fill="#F0F0F0"/>
</g>
<g id="Group_14">
<path id="Vector_13" d="M68.6138 103.112C67.8667 103.112 67.2598 102.504 67.2598 101.755V81.8006C67.2598 81.0518 67.8667 80.4434 68.6138 80.4434H121.792C122.539 80.4434 123.146 81.0518 123.146 81.8006C123.146 82.5494 122.539 83.1578 121.792 83.1578H69.9679V101.755C69.9679 102.504 69.3609 103.112 68.6138 103.112Z" fill="#F0F0F0"/>
</g>
<g id="Group_15">
<path id="Vector_14" d="M116.228 93.7314H77.3209C76.5739 93.7314 75.9668 93.1228 75.9668 92.3737C75.9668 91.6247 76.5739 91.0161 77.3209 91.0161H116.228C116.975 91.0161 117.582 91.6247 117.582 92.3737C117.582 93.1228 116.979 93.7314 116.228 93.7314Z" fill="#DB9641"/>
</g>
<g id="Group_16">
<path id="Vector_15" d="M110.61 97.5261C110.381 97.5261 110.151 97.4665 109.939 97.3474C109.29 96.973 109.065 96.1433 109.438 95.4924L113.929 87.6382C114.303 86.9872 115.131 86.7617 115.78 87.1362C116.429 87.5106 116.654 88.3402 116.281 88.9912L111.79 96.8453C111.535 97.2793 111.077 97.5261 110.61 97.5261Z" fill="#DB9641"/>
</g>
<g id="Group_17">
<path id="Vector_16" d="M95.4725 97.5261C95.3791 97.5261 95.2857 97.5176 95.1965 97.4963C94.4622 97.3431 93.9953 96.6241 94.1481 95.888L95.7824 88.0339C95.9352 87.2978 96.6525 86.8298 97.3869 86.983C98.1212 87.1362 98.5881 87.8552 98.4353 88.5913L96.8011 96.4454C96.661 97.0836 96.0965 97.5261 95.4725 97.5261Z" fill="#DB9641"/>
</g>
<g id="Group_18">
<path id="Vector_17" d="M84.1316 97.5262C83.5713 97.5262 83.0492 97.1773 82.8539 96.6157L80.1075 88.7616C79.8613 88.0553 80.2307 87.2809 80.9395 87.0299C81.6441 86.7831 82.4166 87.1533 82.6671 87.8638L85.4134 95.7179C85.6596 96.4242 85.2903 97.2028 84.5814 97.4496C84.4329 97.5007 84.2801 97.5262 84.1316 97.5262Z" fill="#DB9641"/>
</g>
<g id="Group_19">
<path id="Vector_18" d="M121.792 51.8518H107.186C106.439 51.8518 105.832 51.2434 105.832 50.4946V11.2324C105.832 10.4835 106.439 9.87512 107.186 9.87512C107.933 9.87512 108.54 10.4835 108.54 11.2324V49.1373H121.792C122.539 49.1373 123.146 49.7457 123.146 50.4946C123.146 51.2434 122.539 51.8518 121.792 51.8518Z" fill="#F0F0F0"/>
</g>
<g id="Group_20">
<path id="Vector_19" d="M114.485 24.7195C112.775 24.7195 111.387 23.324 111.387 21.6136C111.387 19.899 112.779 18.5077 114.485 18.5077C116.192 18.5077 117.584 19.9032 117.584 21.6136C117.584 23.3282 116.196 24.7195 114.485 24.7195ZM114.485 21.2222C114.269 21.2222 114.095 21.3966 114.095 21.6136C114.095 21.8306 114.269 22.005 114.485 22.005C114.702 22.005 114.876 21.8306 114.876 21.6136C114.876 21.3966 114.702 21.2222 114.485 21.2222Z" fill="#F0F0F0"/>
</g>
<g id="Group_21">
<path id="Vector_20" d="M121.794 33.1915H108.419C107.672 33.1915 107.064 32.5829 107.064 31.8338C107.064 31.0848 107.672 30.4762 108.419 30.4762H121.794C122.541 30.4762 123.148 31.0848 123.148 31.8338C123.148 32.5829 122.541 33.1915 121.794 33.1915Z" fill="#F0F0F0"/>
</g>
<g id="Group_22">
<g id="Group_23">
<path id="Vector_21" d="M24.0613 54.8981H17.0787C16.3316 54.8981 15.7246 54.2897 15.7246 53.5409V46.5419C15.7246 45.7931 16.3316 45.1847 17.0787 45.1847H24.0613C24.8084 45.1847 25.4153 45.7931 25.4153 46.5419V53.5409C25.4153 54.2897 24.8084 54.8981 24.0613 54.8981ZM18.4328 52.1836H22.7072V47.8992H18.4328V52.1836Z" fill="#F0F0F0"/>
</g>
<g id="Group_24">
<path id="Vector_22" d="M24.0613 41.2532H17.0787C16.3316 41.2532 15.7246 40.6448 15.7246 39.896V32.897C15.7246 32.1482 16.3316 31.5398 17.0787 31.5398H24.0613C24.8084 31.5398 25.4153 32.1482 25.4153 32.897V39.896C25.4153 40.6448 24.8084 41.2532 24.0613 41.2532ZM18.4328 38.5345H22.7072V34.25H18.4328V38.5345Z" fill="#F0F0F0"/>
</g>
<g id="Group_25">
<path id="Vector_23" d="M24.0613 27.604H17.0787C16.3316 27.604 15.7246 26.9956 15.7246 26.2468V19.2479C15.7246 18.499 16.3316 17.8906 17.0787 17.8906H24.0613C24.8084 17.8906 25.4153 18.499 25.4153 19.2479V26.2468C25.4153 26.9956 24.8084 27.604 24.0613 27.604ZM18.4328 24.8896H22.7072V20.6051H18.4328V24.8896Z" fill="#F0F0F0"/>
</g>
</g>
<g id="Group_26">
<path id="Vector_24" d="M47.321 76.4102C40.6568 76.4102 35.2363 70.977 35.2363 64.2972C35.2363 57.6173 40.6568 52.1841 47.321 52.1841C53.9853 52.1841 59.4059 57.6173 59.4059 64.2972C59.4059 70.977 53.9853 76.4102 47.321 76.4102ZM47.321 54.8986C42.151 54.8986 37.9445 59.115 37.9445 64.2972C37.9445 69.4794 42.151 73.6957 47.321 73.6957C52.4911 73.6957 56.6977 69.4794 56.6977 64.2972C56.6977 59.115 52.4911 54.8986 47.321 54.8986Z" fill="#F0F0F0"/>
</g>
<g id="Group_27">
<g id="Group_28">
<g id="Group_29">
<path id="Vector_25" d="M45.5568 63.8844C45.2087 63.8844 44.8649 63.7525 44.5975 63.4845L41.5073 60.3871C40.9767 59.8552 40.9767 58.9958 41.5073 58.4682C42.0379 57.9364 42.8953 57.9364 43.4217 58.4682L46.5119 61.5656C47.0425 62.0974 47.0425 62.9569 46.5119 63.4845C46.2487 63.7525 45.9049 63.8844 45.5568 63.8844Z" fill="#F0F0F0"/>
</g>
<g id="Group_30">
<path id="Vector_26" d="M52.1756 70.5219C51.8275 70.5219 51.4837 70.39 51.2163 70.122L48.1304 67.0288C47.5998 66.497 47.5998 65.6375 48.1304 65.1099C48.661 64.5781 49.5184 64.5781 50.0447 65.1099L53.1307 68.2031C53.6613 68.7349 53.6613 69.5944 53.1307 70.122C52.8675 70.39 52.5194 70.5219 52.1756 70.5219Z" fill="#F0F0F0"/>
</g>
</g>
<g id="Group_31">
<g id="Group_32">
<path id="Vector_27" d="M49.0877 63.8844C48.7397 63.8844 48.3958 63.7525 48.1284 63.4845C47.5978 62.9526 47.5978 62.0932 48.1284 61.5656L51.2143 58.4682C51.7407 57.9364 52.6024 57.9364 53.1287 58.4682C53.6593 59 53.6593 59.8595 53.1287 60.3871L50.0428 63.4845C49.7839 63.7525 49.4358 63.8844 49.0877 63.8844Z" fill="#F0F0F0"/>
</g>
<g id="Group_33">
<path id="Vector_28" d="M42.4705 70.5218C42.1225 70.5218 41.7786 70.3899 41.5112 70.1218C40.9806 69.59 40.9806 68.7306 41.5112 68.203L44.6014 65.1098C45.132 64.578 45.9894 64.578 46.5158 65.1098C47.0464 65.6416 47.0464 66.5011 46.5158 67.0287L43.4256 70.1218C43.1624 70.3899 42.8144 70.5218 42.4705 70.5218Z" fill="#F0F0F0"/>
</g>
</g>
</g>
</g>
</svg>
