<svg width="160" height="106" viewBox="0 0 160 106" fill="none" xmlns="http://www.w3.org/2000/svg">
<g id="Group">
<g id="Group_2">
<g id="Group_3">
<g id="Group_4">
<g id="Group_5">
<path id="Vector" d="M136.569 99.0162H76.4801C75.7292 99.0162 75.1191 98.4102 75.1191 97.6644V51.2192C75.1191 50.4733 75.7292 49.8673 76.4801 49.8673C77.231 49.8673 77.8411 50.4733 77.8411 51.2192V96.3125H135.204V51.2192C135.204 50.4733 135.814 49.8673 136.565 49.8673C137.316 49.8673 137.926 50.4733 137.926 51.2192V97.6644C137.93 98.4102 137.324 99.0162 136.569 99.0162Z" fill="#F0F0F0"/>
</g>
<g id="Group_6">
<path id="Vector_2" d="M76.4804 99.0162H54.4185C53.9322 99.0162 53.4842 98.7577 53.241 98.3424C52.9978 97.9229 52.9978 97.4101 53.241 96.9906C57.1277 90.2781 55.3401 73.59 53.0746 58.152C53.0661 58.0885 53.0618 58.0206 53.0618 57.9571C53.0618 53.4948 56.7139 49.8673 61.2065 49.8673H76.4847C77.2356 49.8673 77.8457 50.4733 77.8457 51.2192V97.6644C77.8457 98.4102 77.2356 99.0162 76.4804 99.0162ZM56.5518 96.3125H75.1194V52.5752H61.2022C58.2456 52.5752 55.8307 54.9398 55.7838 57.8681C58.0237 73.1408 59.6023 88.2143 56.5518 96.3125Z" fill="#F0F0F0"/>
</g>
<g id="Group_7">
<path id="Vector_3" d="M158.631 99.0167H136.573C135.822 99.0167 135.212 98.4107 135.212 97.6649V51.2197C135.212 50.4738 135.822 49.8678 136.573 49.8678H151.851C156.339 49.8678 159.996 53.4953 159.996 57.9576C159.996 58.0508 159.987 58.1483 159.966 58.2415C155.981 76.6967 155.938 89.7488 159.838 97.0292C160.064 97.4487 160.051 97.953 159.804 98.3598C159.552 98.7709 159.108 99.0167 158.631 99.0167ZM137.93 96.313H156.493C153.187 88.2148 153.442 75.5822 157.265 57.822C157.193 54.9149 154.791 52.5715 151.847 52.5715H137.93V96.313Z" fill="#F0F0F0"/>
</g>
<g id="Group_8">
<path id="Vector_4" d="M136.569 66.471H76.4801C75.7292 66.471 75.1191 65.865 75.1191 65.1191C75.1191 64.3733 75.7292 63.7673 76.4801 63.7673H136.569C137.32 63.7673 137.93 64.3733 137.93 65.1191C137.93 65.865 137.32 66.471 136.569 66.471Z" fill="#F0F0F0"/>
</g>
<g id="Group_9">
<path id="Vector_5" d="M136.569 72.4082H76.4801C75.7292 72.4082 75.1191 71.8022 75.1191 71.0564C75.1191 70.3106 75.7292 69.7046 76.4801 69.7046H136.569C137.32 69.7046 137.93 70.3106 137.93 71.0564C137.93 71.8022 137.32 72.4082 136.569 72.4082Z" fill="#F0F0F0"/>
</g>
<g id="Group_10">
<path id="Vector_6" d="M147.597 52.5755C146.846 52.5755 146.236 51.9696 146.236 51.2237V39.926C146.236 35.9256 142.964 32.6711 138.941 32.6711H74.116C70.0885 32.6711 66.8118 35.9256 66.8118 39.926V51.2237C66.8118 51.9696 66.2017 52.5755 65.4508 52.5755C64.6999 52.5755 64.0898 51.9696 64.0898 51.2237V39.926C64.0898 34.4339 68.5867 29.9674 74.116 29.9674H138.941C144.466 29.9674 148.963 34.4339 148.963 39.926V51.2237C148.958 51.9696 148.352 52.5755 147.597 52.5755Z" fill="#F0F0F0"/>
</g>
</g>
<g id="Group_11">
<path id="Vector_7" d="M76.4796 106H65.4508C64.6999 106 64.0898 105.394 64.0898 104.648V97.6644C64.0898 96.9185 64.6999 96.3125 65.4508 96.3125C66.2017 96.3125 66.8118 96.9185 66.8118 97.6644V103.296H75.1186V97.6644C75.1186 96.9185 75.7287 96.3125 76.4796 96.3125C77.2305 96.3125 77.8406 96.9185 77.8406 97.6644V104.648C77.8449 105.394 77.2348 106 76.4796 106Z" fill="#F0F0F0"/>
</g>
<g id="Group_12">
<path id="Vector_8" d="M147.598 106H136.569C135.818 106 135.208 105.394 135.208 104.648V97.6644C135.208 96.9185 135.818 96.3125 136.569 96.3125C137.32 96.3125 137.93 96.9185 137.93 97.6644V103.296H146.237V97.6644C146.237 96.9185 146.847 96.3125 147.598 96.3125C148.349 96.3125 148.959 96.9185 148.959 97.6644V104.648C148.959 105.394 148.349 106 147.598 106Z" fill="#F0F0F0"/>
</g>
</g>
<g id="Group_13">
<path id="Vector_9" d="M106.525 66.4709C105.774 66.4709 105.164 65.8649 105.164 65.119V31.3234C105.164 30.5775 105.774 29.9716 106.525 29.9716C107.276 29.9716 107.886 30.5775 107.886 31.3234V65.119C107.89 65.8649 107.28 66.4709 106.525 66.4709Z" fill="#F0F0F0"/>
</g>
<g id="Group_14">
<path id="Vector_10" d="M106.525 99.017C105.774 99.017 105.164 98.411 105.164 97.6652V71.0566C105.164 70.3108 105.774 69.7048 106.525 69.7048C107.276 69.7048 107.886 70.3108 107.886 71.0566V97.6652C107.886 98.411 107.276 99.017 106.525 99.017Z" fill="#F0F0F0"/>
</g>
</g>
<g id="Group_15">
<path id="Vector_11" d="M33.8675 101.542H14.1266C13.3757 101.542 12.7656 100.936 12.7656 100.19V95.728C12.7656 94.9822 13.3757 94.3762 14.1266 94.3762H33.8675C34.6184 94.3762 35.2286 94.9822 35.2286 95.728V100.19C35.2286 100.936 34.6184 101.542 33.8675 101.542ZM15.4876 98.8343H32.5066V97.0756H15.4876V98.8343Z" fill="#F0F0F0"/>
</g>
<g id="Group_16">
<path id="Vector_12" d="M41.2771 106H6.71449C5.96359 106 5.35352 105.394 5.35352 104.648V100.5C5.35352 99.7537 5.96359 99.1477 6.71449 99.1477H41.2771C42.028 99.1477 42.6381 99.7537 42.6381 100.5V104.648C42.6381 105.394 42.028 106 41.2771 106ZM8.07552 103.296H39.9161V101.851H8.07552V103.296Z" fill="#F0F0F0"/>
</g>
<g id="Group_17">
<path id="Vector_13" d="M23.9949 97.0795C23.419 97.0795 22.8814 96.7108 22.698 96.1345L6.84804 46.6635C6.73712 46.3118 6.77124 45.9347 6.94616 45.6083L24.0461 14.2154C24.4045 13.5586 25.228 13.3128 25.8935 13.6687C26.5548 14.0247 26.8023 14.8469 26.4439 15.5037L9.62124 46.3923L25.292 95.3166C25.5223 96.0285 25.1256 96.787 24.4088 97.0159C24.2723 97.0583 24.1357 97.0795 23.9949 97.0795Z" fill="#F0F0F0"/>
</g>
<g id="Group_18">
<path id="Vector_14" d="M49.4869 31.7769C48.1088 31.7769 46.2914 31.2853 44.2563 29.4927C43.6931 28.9969 43.6419 28.1409 44.1411 27.5815C44.6402 27.0222 45.4978 26.9713 46.0653 27.4671C47.1745 28.4418 48.8299 29.4843 50.4256 28.9122C51.7012 28.4587 52.7039 27.0052 52.9854 25.2169C53.3524 22.8988 52.4735 20.6783 50.6389 19.2757C50.0416 18.818 49.9306 17.9704 50.3914 17.3771C50.8479 16.7838 51.7055 16.6737 52.3028 17.1313C54.9395 19.1443 56.1981 22.3268 55.6776 25.6364C55.2381 28.4291 53.5785 30.6624 51.3471 31.459C50.8821 31.6243 50.2506 31.7769 49.4869 31.7769Z" fill="#DB9641"/>
</g>
<g id="Group_19">
<path id="Vector_15" d="M38.5825 39.1419C38.5697 39.1419 38.557 39.1419 38.5442 39.1419C38.0706 39.1292 37.6397 38.8749 37.4007 38.4681L24.307 15.9489L13.6323 11.8426C13.291 11.7112 13.0179 11.4527 12.8728 11.118C12.7278 10.7874 12.7235 10.4102 12.86 10.0754L16.6188 0.845768C16.8961 0.163498 17.6683 -0.171297 18.3638 0.0872027L30.3312 4.57491L58.2168 6.7531C58.6947 6.79124 59.1213 7.07517 59.3304 7.50318C59.5394 7.93119 59.5095 8.43972 59.2493 8.83807L39.7174 38.5274C39.4743 38.913 39.0433 39.1419 38.5825 39.1419ZM15.9063 9.81695L25.7405 13.6012C26.0306 13.7114 26.2738 13.9191 26.4274 14.186L38.6551 35.2135L55.7209 9.27451L29.9301 7.2616C29.8022 7.25313 29.6742 7.22349 29.5547 7.17687L18.6496 3.08748L15.9063 9.81695Z" fill="#F0F0F0"/>
</g>
<g id="Group_20">
<path id="Vector_16" d="M19.604 14.0422C19.4205 14.0422 19.237 14.0041 19.0578 13.9278C18.3709 13.6269 18.0552 12.8302 18.3539 12.1479L22.3942 2.96904C22.6971 2.28677 23.4992 1.97322 24.1861 2.26986C24.873 2.57074 25.1888 3.36741 24.8901 4.04968L20.8497 13.2286C20.6279 13.7371 20.1287 14.0422 19.604 14.0422Z" fill="#F0F0F0"/>
</g>
<g id="Group_21">
<path id="Vector_17" d="M25.2494 16.2119C25.0617 16.2119 24.8697 16.1738 24.6905 16.0933C24.0036 15.7839 23.7007 14.983 24.0121 14.3049L27.9074 5.74904C28.2189 5.06676 29.0252 4.7659 29.7078 5.07525C30.3947 5.38461 30.6977 6.18552 30.3862 6.86355L26.491 15.4194C26.2606 15.9153 25.7656 16.2119 25.2494 16.2119Z" fill="#F0F0F0"/>
</g>
<g id="Group_22">
<path id="Vector_18" d="M6.38266 53.1816C2.86283 53.1816 0 50.3338 0 46.8377C0 43.3416 2.86283 40.4939 6.38266 40.4939C8.15325 40.4939 9.85982 41.2355 11.063 42.5238C11.5749 43.0704 11.5408 43.9265 10.9904 44.435C10.44 44.9435 9.57821 44.9096 9.06623 44.3629C8.36653 43.6128 7.41515 43.2018 6.38266 43.2018C4.36463 43.2018 2.72201 44.8333 2.72201 46.842C2.72201 48.8464 4.36463 50.4822 6.38266 50.4822C7.23169 50.4822 8.05509 50.1898 8.69932 49.66C9.27956 49.1812 10.1371 49.2617 10.6192 49.8338C11.1013 50.4101 11.0203 51.2619 10.4443 51.7408C9.30947 52.6688 7.87166 53.1816 6.38266 53.1816Z" fill="#F0F0F0"/>
</g>
</g>
</svg>
