<svg width="240" height="54" viewBox="0 0 240 54" fill="none" xmlns="http://www.w3.org/2000/svg">
<g id="Mask group">
<mask id="mask0_102_132" style="mask-type:alpha" maskUnits="userSpaceOnUse" x="0" y="0" width="240" height="54">
<rect id="Rectangle 127" width="240" height="53.5032" fill="#D9D9D9"/>
</mask>
<g mask="url(#mask0_102_132)">
<g id="Group 41">
<g id="IMPERIUM-STROY">
<path d="M4.52344 22.0739V4.70832H7.2628V22.0739H4.52344Z" fill="white"/>
<path d="M27.0122 22.0739V9.69788L21.9003 19.09H20.286L15.1497 9.69788V22.0739H12.4104V4.70832H15.3454L21.0932 15.3234L26.841 4.70832H29.776V22.0739H27.0122Z" fill="white"/>
<path d="M34.9152 22.0739V4.70832H42.2038C42.9865 4.70832 43.7039 4.87138 44.3562 5.19749C45.0084 5.52361 45.5791 5.95571 46.0683 6.4938C46.5574 7.03189 46.9325 7.6352 47.1934 8.30374C47.4543 8.97227 47.5847 9.65711 47.5847 10.3583C47.5847 11.3203 47.3646 12.2416 46.9243 13.1221C46.5004 13.9863 45.8889 14.6874 45.0899 15.2255C44.3073 15.7636 43.3941 16.0327 42.3506 16.0327H37.6545V22.0739H34.9152ZM37.6545 13.6113H42.1794C42.7011 13.6113 43.1577 13.4727 43.549 13.1955C43.9404 12.902 44.242 12.5106 44.454 12.0214C44.6823 11.5323 44.7964 10.9779 44.7964 10.3583C44.7964 9.72233 44.666 9.15979 44.4051 8.67061C44.1442 8.18144 43.8018 7.80641 43.3778 7.54552C42.9702 7.26832 42.5218 7.12972 42.0326 7.12972H37.6545V13.6113Z" fill="white"/>
<path d="M63.2883 19.6525V22.0739H51.3769V4.70832H63.0682V7.12972H54.1163V12.0704H61.8697V14.345H54.1163V19.6525H63.2883Z" fill="white"/>
<path d="M67.3371 22.0739V4.70832H74.8948C75.6775 4.70832 76.395 4.87138 77.0472 5.19749C77.6994 5.52361 78.262 5.95571 78.7348 6.4938C79.224 7.03189 79.599 7.6352 79.8599 8.30374C80.1371 8.97227 80.2757 9.65711 80.2757 10.3583C80.2757 11.1246 80.1371 11.8584 79.8599 12.5595C79.5827 13.2607 79.1833 13.864 78.6615 14.3695C78.156 14.8749 77.5608 15.2418 76.876 15.4701L80.9606 22.0739H77.8788L74.1122 16.0327H70.0765V22.0739H67.3371ZM70.0765 13.6113H74.8704C75.3759 13.6113 75.8243 13.4645 76.2156 13.171C76.6069 12.8775 76.9168 12.4862 77.145 11.997C77.3733 11.4915 77.4874 10.9453 77.4874 10.3583C77.4874 9.75495 77.357 9.21686 77.0961 8.74399C76.8352 8.25482 76.4928 7.86348 76.0689 7.56998C75.6612 7.27648 75.2128 7.12972 74.7236 7.12972H70.0765V13.6113Z" fill="white"/>
<path d="M84.7304 22.0739V4.70832H87.4698V22.0739H84.7304Z" fill="white"/>
<path d="M99.8571 22.1962C98.4711 22.1962 97.2971 21.9598 96.3351 21.4869C95.3894 21.0141 94.623 20.37 94.036 19.5547C93.4653 18.7394 93.0413 17.81 92.7641 16.7664C92.5033 15.7228 92.3728 14.6385 92.3728 13.5134V4.70832H95.1122V13.5134C95.1122 14.3124 95.1937 15.0869 95.3568 15.837C95.5198 16.5707 95.7807 17.2311 96.1394 17.8181C96.4982 18.4051 96.9792 18.8699 97.5825 19.2123C98.2021 19.5547 98.9603 19.7259 99.8571 19.7259C100.77 19.7259 101.528 19.5547 102.132 19.2123C102.751 18.8535 103.232 18.3807 103.575 17.7937C103.934 17.1904 104.194 16.5218 104.358 15.7881C104.521 15.0543 104.602 14.2961 104.602 13.5134V4.70832H107.366V13.5134C107.366 14.7037 107.219 15.8288 106.926 16.8887C106.648 17.9323 106.208 18.8535 105.605 19.6525C105.018 20.4352 104.252 21.0548 103.306 21.5114C102.36 21.9679 101.211 22.1962 99.8571 22.1962Z" fill="white"/>
<path d="M126.834 22.0739V9.69788L121.722 19.09H120.108L114.971 9.69788V22.0739H112.232V4.70832H115.167L120.915 15.3234L126.663 4.70832H129.598V22.0739H126.834Z" fill="white"/>
<path d="M134.272 16.5952V14.1738H141.585V16.5952H134.272Z" fill="white"/>
<path d="M156.527 8.79291C156.364 8.61354 156.127 8.42603 155.818 8.23036C155.508 8.01839 155.141 7.82272 154.717 7.64335C154.293 7.46399 153.836 7.31724 153.347 7.2031C152.858 7.08896 152.353 7.03189 151.831 7.03189C150.689 7.03189 149.842 7.24386 149.287 7.66781C148.733 8.09176 148.456 8.67877 148.456 9.42883C148.456 9.98323 148.611 10.4235 148.92 10.7496C149.23 11.0594 149.703 11.3203 150.339 11.5323C150.975 11.7442 151.774 11.9725 152.736 12.2171C153.91 12.4943 154.929 12.8286 155.793 13.2199C156.657 13.5949 157.318 14.1004 157.774 14.7363C158.231 15.3723 158.459 16.212 158.459 17.2556C158.459 18.1361 158.296 18.8943 157.97 19.5302C157.644 20.1662 157.187 20.6879 156.6 21.0956C156.013 21.4869 155.337 21.7804 154.57 21.9761C153.804 22.1555 152.98 22.2451 152.1 22.2451C151.236 22.2451 150.372 22.1555 149.507 21.9761C148.659 21.7967 147.844 21.5358 147.061 21.1934C146.295 20.8347 145.586 20.4026 144.934 19.8971L146.181 17.5491C146.393 17.7611 146.695 17.9975 147.086 18.2584C147.494 18.503 147.958 18.7394 148.48 18.9677C149.018 19.196 149.597 19.3916 150.217 19.5547C150.853 19.7014 151.497 19.7748 152.149 19.7748C153.241 19.7748 154.073 19.5873 154.644 19.2123C155.231 18.8209 155.524 18.2665 155.524 17.5491C155.524 16.9621 155.337 16.4974 154.962 16.1549C154.587 15.7962 154.04 15.4946 153.323 15.25C152.605 15.0054 151.749 14.7608 150.755 14.5162C149.613 14.2064 148.659 13.8721 147.893 13.5134C147.127 13.1384 146.548 12.6655 146.156 12.0948C145.781 11.5078 145.594 10.7659 145.594 9.86909C145.594 8.72769 145.871 7.76565 146.426 6.98297C146.98 6.18399 147.73 5.58883 148.676 5.19749C149.638 4.78985 150.714 4.58603 151.904 4.58603C152.687 4.58603 153.429 4.67571 154.13 4.85507C154.831 5.01813 155.483 5.24641 156.087 5.53991C156.706 5.83342 157.269 6.16768 157.774 6.54272L156.527 8.79291Z" fill="white"/>
<path d="M175.172 7.12972H169.4V22.0739H166.636V7.12972H160.84V4.70832H175.172V7.12972Z" fill="white"/>
<path d="M178.724 22.0739V4.70832H186.282C187.064 4.70832 187.782 4.87138 188.434 5.19749C189.086 5.52361 189.649 5.95571 190.122 6.4938C190.611 7.03189 190.986 7.6352 191.247 8.30374C191.524 8.97227 191.663 9.65711 191.663 10.3583C191.663 11.1246 191.524 11.8584 191.247 12.5595C190.97 13.2607 190.57 13.864 190.048 14.3695C189.543 14.8749 188.948 15.2418 188.263 15.4701L192.348 22.0739H189.266L185.499 16.0327H181.463V22.0739H178.724ZM181.463 13.6113H186.257C186.763 13.6113 187.211 13.4645 187.603 13.171C187.994 12.8775 188.304 12.4862 188.532 11.997C188.76 11.4915 188.874 10.9453 188.874 10.3583C188.874 9.75495 188.744 9.21686 188.483 8.74399C188.222 8.25482 187.88 7.86348 187.456 7.56998C187.048 7.27648 186.6 7.12972 186.111 7.12972H181.463V13.6113Z" fill="white"/>
<path d="M203.285 22.1962C202.029 22.1962 200.896 21.9516 199.885 21.4625C198.874 20.9733 198.002 20.3129 197.268 19.4813C196.534 18.6334 195.964 17.6877 195.556 16.6441C195.165 15.5842 194.969 14.4999 194.969 13.3911C194.969 12.2334 195.181 11.1328 195.605 10.0892C196.029 9.02934 196.616 8.09176 197.366 7.27648C198.116 6.44488 198.996 5.79265 200.007 5.31979C201.035 4.83061 202.144 4.58603 203.334 4.58603C204.573 4.58603 205.698 4.83877 206.709 5.34425C207.736 5.84972 208.609 6.52641 209.326 7.37431C210.06 8.22221 210.622 9.16794 211.014 10.2115C211.421 11.2551 211.625 12.3231 211.625 13.4156C211.625 14.5733 211.413 15.6821 210.989 16.742C210.582 17.7855 210.003 18.7231 209.253 19.5547C208.503 20.37 207.614 21.0141 206.587 21.4869C205.576 21.9598 204.475 22.1962 203.285 22.1962ZM197.757 13.3911C197.757 14.2064 197.888 14.9972 198.149 15.7636C198.409 16.53 198.776 17.2148 199.249 17.8181C199.738 18.4051 200.325 18.8699 201.01 19.2123C201.695 19.5547 202.461 19.7259 203.309 19.7259C204.19 19.7259 204.973 19.5465 205.657 19.1878C206.342 18.8291 206.913 18.3481 207.369 17.7448C207.842 17.1251 208.201 16.4403 208.446 15.6902C208.69 14.9239 208.813 14.1575 208.813 13.3911C208.813 12.5758 208.682 11.7932 208.421 11.0431C208.177 10.2767 207.81 9.60004 207.321 9.01303C206.831 8.40972 206.244 7.93686 205.56 7.59444C204.891 7.25202 204.141 7.08081 203.309 7.08081C202.429 7.08081 201.646 7.26017 200.961 7.6189C200.277 7.97762 199.698 8.45864 199.225 9.06195C198.752 9.66526 198.385 10.342 198.124 11.092C197.88 11.8421 197.757 12.6084 197.757 13.3911Z" fill="white"/>
<path d="M215.81 4.70832L220.604 13.3422L225.446 4.70832H228.455L221.973 15.8614V22.0739H219.234V15.8125L212.801 4.70832H215.81Z" fill="white"/>
</g>
<rect id="Rectangle 27" x="231.867" y="15.9591" width="6.11465" height="6.11465" fill="#DB9641"/>
<g id="&#209;&#129;&#209;&#130;&#209;&#128;&#208;&#190;&#208;&#184;&#209;&#130;&#208;&#181;&#208;&#187;&#209;&#140;&#208;&#189;&#208;&#176;&#209;&#143; &#208;&#186;&#208;&#190;&#208;&#188;&#208;&#191;&#208;&#176;&#208;&#189;&#208;&#184;&#209;&#143;">
<path d="M7.20127 48.2141C6.57961 48.2141 6.01401 48.1071 5.50445 47.8931C5.00509 47.6689 4.57197 47.3631 4.20509 46.9759C3.83821 46.5886 3.55286 46.1453 3.34904 45.6459C3.15541 45.1466 3.05859 44.6166 3.05859 44.0561C3.05859 43.302 3.22675 42.6141 3.56305 41.9924C3.90955 41.3708 4.38853 40.8714 5 40.4943C5.62165 40.1173 6.35541 39.9287 7.20127 39.9287C8.01656 39.9287 8.72484 40.1122 9.32611 40.4791C9.93758 40.8357 10.386 41.3147 10.6713 41.916L9.03566 42.4357C8.85222 42.0994 8.59235 41.8396 8.25605 41.6561C7.92993 41.4625 7.56815 41.3657 7.1707 41.3657C6.72229 41.3657 6.31464 41.4829 5.94777 41.7173C5.59108 41.9415 5.30573 42.2574 5.09171 42.665C4.88789 43.0625 4.78598 43.5262 4.78598 44.0561C4.78598 44.5657 4.89299 45.0294 5.107 45.4472C5.32101 45.8549 5.60636 46.181 5.96305 46.4256C6.32993 46.66 6.73757 46.7771 7.18598 46.7771C7.46114 46.7771 7.72611 46.7313 7.98089 46.6396C8.24586 46.5377 8.47515 46.4052 8.66879 46.2421C8.86242 46.0689 9 45.8803 9.08152 45.6765L10.7325 46.1657C10.5592 46.5631 10.2994 46.9147 9.95286 47.2205C9.61656 47.5262 9.21401 47.7708 8.74522 47.9542C8.28662 48.1275 7.77197 48.2141 7.20127 48.2141Z" fill="white"/>
<path d="M14.9301 48.0612V41.5491H12.2855V40.0663H19.2715V41.5491H16.6116V48.0612H14.9301Z" fill="white"/>
<path d="M25.9859 48.2141C25.3439 48.2141 24.7783 48.0612 24.2891 47.7555C23.7999 47.4498 23.4127 47.0523 23.1273 46.5631V51.3173H21.4458V40.0663H22.9286V41.5033C23.2343 41.0243 23.6318 40.6421 24.1209 40.3568C24.6101 40.0714 25.1553 39.9287 25.7566 39.9287C26.3069 39.9287 26.8114 40.0408 27.27 40.265C27.7286 40.4791 28.126 40.7797 28.4623 41.167C28.7986 41.5542 29.0585 41.9975 29.242 42.4969C29.4356 42.9861 29.5324 43.5058 29.5324 44.0561C29.5324 44.8205 29.3795 45.5186 29.0738 46.1504C28.7783 46.7822 28.3604 47.2867 27.8203 47.6638C27.2904 48.0307 26.6789 48.2141 25.9859 48.2141ZM25.4356 46.7771C25.7923 46.7771 26.1133 46.7007 26.3986 46.5479C26.6942 46.395 26.9439 46.1912 27.1477 45.9364C27.3617 45.6816 27.5248 45.3912 27.6369 45.065C27.749 44.7389 27.805 44.4026 27.805 44.0561C27.805 43.6893 27.7439 43.3428 27.6216 43.0166C27.4993 42.6905 27.3209 42.4052 27.0865 42.1606C26.8623 41.916 26.5974 41.7224 26.2916 41.5797C25.9961 41.437 25.67 41.3657 25.3133 41.3657C25.0993 41.3657 24.8751 41.4064 24.6407 41.488C24.4063 41.5695 24.1872 41.6816 23.9834 41.8243C23.7795 41.967 23.6012 42.1351 23.4483 42.3287C23.2955 42.5224 23.1885 42.7262 23.1273 42.9402V45.0345C23.27 45.3606 23.4585 45.6561 23.6929 45.9211C23.9273 46.1759 24.1974 46.3848 24.5031 46.5479C24.8088 46.7007 25.1197 46.7771 25.4356 46.7771Z" fill="white"/>
<path d="M35.5543 48.2141C34.9224 48.2141 34.3568 48.1071 33.8574 47.8931C33.3581 47.6689 32.925 47.3631 32.5581 46.9759C32.2014 46.5886 31.9262 46.1504 31.7326 45.6612C31.539 45.1619 31.4422 44.6319 31.4422 44.0714C31.4422 43.5109 31.539 42.981 31.7326 42.4816C31.9262 41.9822 32.2014 41.544 32.5581 41.167C32.925 40.7797 33.3581 40.4791 33.8574 40.265C34.367 40.0408 34.9326 39.9287 35.5543 39.9287C36.1759 39.9287 36.7364 40.0408 37.2358 40.265C37.7453 40.4791 38.1785 40.7797 38.5351 41.167C38.902 41.544 39.1823 41.9822 39.3759 42.4816C39.5695 42.981 39.6664 43.5109 39.6664 44.0714C39.6664 44.6319 39.5695 45.1619 39.3759 45.6612C39.1823 46.1504 38.902 46.5886 38.5351 46.9759C38.1785 47.3631 37.7453 47.6689 37.2358 47.8931C36.7364 48.1071 36.1759 48.2141 35.5543 48.2141ZM33.1695 44.0867C33.1695 44.5963 33.2765 45.0549 33.4906 45.4625C33.7046 45.8701 33.9899 46.1912 34.3466 46.4256C34.7033 46.66 35.1058 46.7771 35.5543 46.7771C35.9925 46.7771 36.3899 46.66 36.7466 46.4256C37.1135 46.181 37.4039 45.8549 37.618 45.4472C37.832 45.0294 37.939 44.5708 37.939 44.0714C37.939 43.5619 37.832 43.1033 37.618 42.6956C37.4039 42.288 37.1135 41.967 36.7466 41.7326C36.3899 41.488 35.9925 41.3657 35.5543 41.3657C35.1058 41.3657 34.7033 41.488 34.3466 41.7326C33.9899 41.9771 33.7046 42.3033 33.4906 42.7109C33.2765 43.1084 33.1695 43.567 33.1695 44.0867Z" fill="white"/>
<path d="M42.075 48.0612V40.0816H43.7565V45.8141L47.8074 40.0663H49.3361V48.0612H47.6546V42.451L43.6495 48.0612H42.075Z" fill="white"/>
<path d="M54.1582 48.0612V41.5491H51.5136V40.0663H58.4996V41.5491H55.8397V48.0612H54.1582Z" fill="white"/>
<path d="M64.2968 48.2141C63.6752 48.2141 63.1095 48.1071 62.6 47.8931C62.1006 47.6689 61.6675 47.3682 61.3006 46.9912C60.9338 46.6039 60.6484 46.1657 60.4446 45.6765C60.2509 45.1771 60.1541 44.6472 60.1541 44.0867C60.1541 43.3326 60.3274 42.6447 60.6739 42.023C61.0204 41.3912 61.5045 40.8867 62.1261 40.5096C62.7478 40.1224 63.4764 39.9287 64.3121 39.9287C65.1478 39.9287 65.8662 40.1224 66.4675 40.5096C67.079 40.8867 67.5529 41.3861 67.8892 42.0077C68.2255 42.6294 68.3936 43.2969 68.3936 44.0103C68.3936 44.1326 68.3885 44.2498 68.3783 44.3619C68.3681 44.4638 68.358 44.5504 68.3478 44.6217H61.9427C61.9732 45.0905 62.1006 45.5033 62.3248 45.86C62.5592 46.2064 62.8548 46.4816 63.2115 46.6854C63.5681 46.8791 63.9503 46.9759 64.358 46.9759C64.8064 46.9759 65.2293 46.8638 65.6267 46.6396C66.0344 46.4154 66.3095 46.1198 66.4522 45.7529L67.8892 46.1657C67.7159 46.5529 67.451 46.9045 67.0943 47.2205C66.7478 47.5262 66.335 47.7708 65.856 47.9542C65.3771 48.1275 64.8573 48.2141 64.2968 48.2141ZM61.8968 43.5058H66.7274C66.6968 43.0472 66.5643 42.6447 66.3299 42.2982C66.1057 41.9415 65.8153 41.6663 65.4586 41.4727C65.1121 41.2689 64.7248 41.167 64.2968 41.167C63.879 41.167 63.4917 41.2689 63.135 41.4727C62.7885 41.6663 62.5032 41.9415 62.279 42.2982C62.0548 42.6447 61.9274 43.0472 61.8968 43.5058Z" fill="white"/>
<path d="M70.0404 48.1377V46.6396C70.2952 46.6396 70.5245 46.5784 70.7283 46.4561C70.9321 46.3236 71.1105 46.1096 71.2633 45.8141C71.4162 45.5084 71.5385 45.0854 71.6302 44.5453C71.7219 44.0052 71.7831 43.3173 71.8137 42.4816L71.9207 40.0663H77.6226V48.0612H75.941V41.5491H73.4035L73.3729 42.6345C73.3321 43.7045 73.2353 44.5963 73.0824 45.3096C72.9296 46.0128 72.7156 46.5733 72.4404 46.9912C72.1754 47.3988 71.8391 47.6943 71.4315 47.8778C71.034 48.051 70.5703 48.1377 70.0404 48.1377Z" fill="white"/>
<path d="M80.5566 48.0612V40.0663H82.2382V42.6956H84.149C85.0968 42.6956 85.8152 42.9351 86.3044 43.4141C86.8038 43.8931 87.0535 44.5249 87.0535 45.3096C87.0535 45.8396 86.9465 46.3135 86.7324 46.7313C86.5184 47.1491 86.2025 47.4752 85.7847 47.7096C85.377 47.944 84.8675 48.0612 84.256 48.0612H80.5566ZM82.2382 46.7619H83.9961C84.3324 46.7619 84.6025 46.7007 84.8063 46.5784C85.0101 46.4459 85.163 46.2727 85.2649 46.0587C85.3668 45.8345 85.4178 45.595 85.4178 45.3402C85.4178 45.0854 85.3719 44.8561 85.2802 44.6523C85.1885 44.4383 85.0356 44.2701 84.8216 44.1479C84.6178 44.0154 84.3375 43.9491 83.9809 43.9491H82.2382V46.7619Z" fill="white"/>
<path d="M89.3411 48.0612V40.0663H91.0226V43.2459H94.7373V40.0663H96.4188V48.0612H94.7373V44.6982H91.0226V48.0612H89.3411Z" fill="white"/>
<path d="M98.7837 45.7224C98.7837 45.2128 98.9264 44.7695 99.2117 44.3924C99.5072 44.0052 99.9098 43.7096 100.419 43.5058C100.929 43.2918 101.52 43.1848 102.193 43.1848C102.549 43.1848 102.911 43.2103 103.278 43.2612C103.655 43.3122 103.986 43.3937 104.272 43.5058V43.0014C104.272 42.4408 104.103 42.0026 103.767 41.6867C103.431 41.3708 102.947 41.2128 102.315 41.2128C101.866 41.2128 101.444 41.2943 101.046 41.4574C100.649 41.6103 100.226 41.8294 99.7773 42.1147L99.2117 40.9835C99.7416 40.6268 100.272 40.3619 100.802 40.1886C101.342 40.0154 101.907 39.9287 102.498 39.9287C103.568 39.9287 104.409 40.2141 105.021 40.7848C105.642 41.3453 105.953 42.1453 105.953 43.1848V46.1657C105.953 46.3593 105.984 46.4969 106.045 46.5784C106.116 46.66 106.233 46.7058 106.396 46.716V48.0612C106.244 48.0918 106.106 48.1122 105.984 48.1224C105.861 48.1326 105.759 48.1377 105.678 48.1377C105.321 48.1377 105.051 48.051 104.868 47.8778C104.684 47.7045 104.577 47.5007 104.547 47.2663L104.501 46.8077C104.154 47.2561 103.711 47.6026 103.171 47.8472C102.631 48.0918 102.086 48.2141 101.535 48.2141C101.005 48.2141 100.531 48.1071 100.114 47.8931C99.6958 47.6689 99.3697 47.3682 99.1353 46.9912C98.9009 46.6141 98.7837 46.1912 98.7837 45.7224ZM103.874 46.2115C103.996 46.0791 104.093 45.9466 104.165 45.8141C104.236 45.6816 104.272 45.5644 104.272 45.4625V44.5453C103.986 44.4332 103.686 44.3517 103.37 44.3007C103.054 44.2396 102.743 44.209 102.437 44.209C101.826 44.209 101.326 44.3313 100.939 44.5759C100.562 44.8205 100.373 45.1568 100.373 45.5848C100.373 45.8192 100.435 46.0434 100.557 46.2574C100.689 46.4714 100.873 46.6447 101.107 46.7771C101.352 46.9096 101.652 46.9759 102.009 46.9759C102.376 46.9759 102.728 46.9045 103.064 46.7619C103.4 46.6192 103.67 46.4357 103.874 46.2115Z" fill="white"/>
<path d="M108.406 48.0612L110.546 44.8969C110.047 44.7746 109.649 44.5198 109.354 44.1326C109.058 43.7453 108.91 43.2256 108.91 42.5733C108.91 42.074 109.022 41.6357 109.247 41.2587C109.481 40.8816 109.807 40.5861 110.225 40.3721C110.643 40.158 111.127 40.051 111.677 40.051H115.193V48.0612H113.512V45.1721H112.197L110.24 48.0612H108.406ZM111.845 43.9491H113.512V41.3504H111.952C111.524 41.3504 111.183 41.4676 110.928 41.702C110.684 41.9364 110.561 42.2421 110.561 42.6192C110.561 42.9963 110.668 43.3122 110.882 43.567C111.107 43.8217 111.428 43.9491 111.845 43.9491Z" fill="white"/>
<path d="M122.837 48.0612V40.0663H124.503V43.2307H125.298L127.652 40.0663H129.517L126.597 43.9338L129.853 48.0612H127.912L125.283 44.744H124.503V48.0612H122.837Z" fill="white"/>
<path d="M135.228 48.2141C134.597 48.2141 134.031 48.1071 133.532 47.8931C133.032 47.6689 132.599 47.3631 132.232 46.9759C131.876 46.5886 131.6 46.1504 131.407 45.6612C131.213 45.1619 131.116 44.6319 131.116 44.0714C131.116 43.5109 131.213 42.981 131.407 42.4816C131.6 41.9822 131.876 41.544 132.232 41.167C132.599 40.7797 133.032 40.4791 133.532 40.265C134.041 40.0408 134.607 39.9287 135.228 39.9287C135.85 39.9287 136.411 40.0408 136.91 40.265C137.42 40.4791 137.853 40.7797 138.209 41.167C138.576 41.544 138.856 41.9822 139.05 42.4816C139.244 42.981 139.341 43.5109 139.341 44.0714C139.341 44.6319 139.244 45.1619 139.05 45.6612C138.856 46.1504 138.576 46.5886 138.209 46.9759C137.853 47.3631 137.42 47.6689 136.91 47.8931C136.411 48.1071 135.85 48.2141 135.228 48.2141ZM132.844 44.0867C132.844 44.5963 132.951 45.0549 133.165 45.4625C133.379 45.8701 133.664 46.1912 134.021 46.4256C134.377 46.66 134.78 46.7771 135.228 46.7771C135.667 46.7771 136.064 46.66 136.421 46.4256C136.788 46.181 137.078 45.8549 137.292 45.4472C137.506 45.0294 137.613 44.5708 137.613 44.0714C137.613 43.5619 137.506 43.1033 137.292 42.6956C137.078 42.288 136.788 41.967 136.421 41.7326C136.064 41.488 135.667 41.3657 135.228 41.3657C134.78 41.3657 134.377 41.488 134.021 41.7326C133.664 41.9771 133.379 42.3033 133.165 42.7109C132.951 43.1084 132.844 43.567 132.844 44.0867Z" fill="white"/>
<path d="M141.749 48.0612V40.0663H143.492L146.243 45.0039L149.01 40.0663H150.722V48.0612H149.117V42.4357L146.763 46.6396H145.708L143.339 42.4357V48.0612H141.749Z" fill="white"/>
<path d="M153.654 48.0612V40.0663H160.533V48.0612H158.851V41.5491H155.335V48.0612H153.654Z" fill="white"/>
<path d="M162.902 45.7224C162.902 45.2128 163.045 44.7695 163.33 44.3924C163.626 44.0052 164.028 43.7096 164.538 43.5058C165.047 43.2918 165.638 43.1848 166.311 43.1848C166.668 43.1848 167.029 43.2103 167.396 43.2612C167.773 43.3122 168.105 43.3937 168.39 43.5058V43.0014C168.39 42.4408 168.222 42.0026 167.886 41.6867C167.549 41.3708 167.065 41.2128 166.433 41.2128C165.985 41.2128 165.562 41.2943 165.165 41.4574C164.767 41.6103 164.344 41.8294 163.896 42.1147L163.33 40.9835C163.86 40.6268 164.39 40.3619 164.92 40.1886C165.46 40.0154 166.026 39.9287 166.617 39.9287C167.687 39.9287 168.528 40.2141 169.139 40.7848C169.761 41.3453 170.072 42.1453 170.072 43.1848V46.1657C170.072 46.3593 170.102 46.4969 170.163 46.5784C170.235 46.66 170.352 46.7058 170.515 46.716V48.0612C170.362 48.0918 170.224 48.1122 170.102 48.1224C169.98 48.1326 169.878 48.1377 169.796 48.1377C169.44 48.1377 169.17 48.051 168.986 47.8778C168.803 47.7045 168.696 47.5007 168.665 47.2663L168.619 46.8077C168.273 47.2561 167.829 47.6026 167.289 47.8472C166.749 48.0918 166.204 48.2141 165.654 48.2141C165.124 48.2141 164.65 48.1071 164.232 47.8931C163.814 47.6689 163.488 47.3682 163.254 46.9912C163.019 46.6141 162.902 46.1912 162.902 45.7224ZM167.993 46.2115C168.115 46.0791 168.212 45.9466 168.283 45.8141C168.354 45.6816 168.39 45.5644 168.39 45.4625V44.5453C168.105 44.4332 167.804 44.3517 167.488 44.3007C167.172 44.2396 166.861 44.209 166.556 44.209C165.944 44.209 165.445 44.3313 165.058 44.5759C164.68 44.8205 164.492 45.1568 164.492 45.5848C164.492 45.8192 164.553 46.0434 164.675 46.2574C164.808 46.4714 164.991 46.6447 165.226 46.7771C165.47 46.9096 165.771 46.9759 166.128 46.9759C166.494 46.9759 166.846 46.9045 167.182 46.7619C167.519 46.6192 167.789 46.4357 167.993 46.2115Z" fill="white"/>
<path d="M173.029 48.0612V40.0663H174.71V43.2459H178.425V40.0663H180.106V48.0612H178.425V44.6982H174.71V48.0612H173.029Z" fill="white"/>
<path d="M183.052 48.0612V40.0816H184.734V45.8141L188.785 40.0663H190.313V48.0612H188.632V42.451L184.627 48.0612H183.052Z" fill="white"/>
<path d="M192.736 48.0612L194.876 44.8969C194.376 44.7746 193.979 44.5198 193.683 44.1326C193.388 43.7453 193.24 43.2256 193.24 42.5733C193.24 42.074 193.352 41.6357 193.576 41.2587C193.811 40.8816 194.137 40.5861 194.555 40.3721C194.972 40.158 195.457 40.051 196.007 40.051H199.523V48.0612H197.841V45.1721H196.527L194.57 48.0612H192.736ZM196.175 43.9491H197.841V41.3504H196.282C195.854 41.3504 195.513 41.4676 195.258 41.702C195.013 41.9364 194.891 42.2421 194.891 42.6192C194.891 42.9963 194.998 43.3122 195.212 43.567C195.436 43.8217 195.757 43.9491 196.175 43.9491Z" fill="white"/>
</g>
</g>
</g>
</g>
</svg>
