<svg width="19" height="21" viewBox="0 0 19 21" fill="none" xmlns="http://www.w3.org/2000/svg">
<path id="Vector" d="M2.01215 9.20451L1.95409 9.34282C1.85204 9.29998 1.75955 9.23724 1.68203 9.15826C1.682 9.15823 1.68197 9.1582 1.68194 9.15817L1.789 9.05311L2.01215 9.20451ZM2.01215 9.20451L1.95409 9.34282C2.05618 9.38567 2.16578 9.40774 2.2765 9.40774C2.38722 9.40774 2.49682 9.38567 2.59891 9.34282L2.54085 9.20451M2.01215 9.20451H2.54085M2.54085 9.20451L2.59891 9.34282C2.70091 9.3 2.79336 9.2373 2.87086 9.15837C2.87093 9.15831 2.871 9.15824 2.87106 9.15817L8.8234 3.13408C9.85373 2.34686 10.8737 1.97559 11.8333 2.02509L11.8333 2.02509C13.1573 2.09309 14.1643 2.58435 15.0508 3.42415C15.9122 4.24008 16.472 5.40279 16.472 6.84316C16.472 7.9526 16.1611 8.89039 15.5417 9.68748L7.15668 18.3249C6.63624 18.7442 6.04385 18.9532 5.40624 18.928C4.47532 18.8892 3.86862 18.6197 3.4255 18.1812L3.42535 18.1811C2.85368 17.6171 2.528 16.9714 2.528 16.0619C2.528 15.3431 2.7723 14.6827 3.28683 14.0532L10.7351 6.45115L10.7352 6.45118L10.7373 6.44888C10.9419 6.23111 11.1236 6.07218 11.2801 5.96432C11.4381 5.8554 11.5623 5.80424 11.6526 5.79049L11.6526 5.7905L11.6545 5.79018C11.8119 5.76409 11.9733 5.77731 12.1244 5.82867C12.2755 5.88003 12.4115 5.96793 12.5204 6.08455L12.5211 6.08531C12.7372 6.31364 12.8218 6.56424 12.7857 6.92524L12.7857 6.92535C12.7643 7.14103 12.6753 7.3489 12.494 7.56309L5.65068 14.5712L5.65039 14.5715C5.49437 14.7321 5.40771 14.9476 5.40907 15.1716C5.41043 15.3955 5.49971 15.61 5.65767 15.7687L5.6577 15.7688C5.7357 15.8471 5.82854 15.9092 5.93077 15.9513C6.03301 15.9934 6.14261 16.0147 6.25318 16.0141C6.36375 16.0134 6.47308 15.9907 6.57479 15.9473C6.67649 15.904 6.76853 15.8408 6.84556 15.7615C6.84557 15.7615 6.84559 15.7615 6.8456 15.7614L13.7253 8.7139L13.7256 8.71414L13.7322 8.70643C14.1593 8.20528 14.3968 7.67531 14.4552 7.09622L14.4553 7.0961C14.5393 6.25644 14.2987 5.51075 13.7352 4.91435C13.4411 4.60095 13.0749 4.36418 12.6684 4.22469C12.2619 4.08519 11.8275 4.04719 11.403 4.11401C10.7561 4.21329 10.141 4.61977 9.5307 5.27041L2.04784 12.91L2.04744 12.9097M2.54085 9.20451L2.04744 12.9097M2.04744 12.9097L2.03915 12.9197M2.04744 12.9097L2.03915 12.9197M2.03915 12.9197C1.24144 13.8897 0.85 14.9306 0.85 16.0609C0.85 17.4781 1.38514 18.5364 2.25253 19.3925L2.03915 12.9197Z" fill="black" stroke="black" stroke-width="0.3"/>
</svg>
