<svg width="25" height="25" viewBox="0 0 25 25" fill="none" xmlns="http://www.w3.org/2000/svg">
<g id="logos:telegram" clip-path="url(#clip0_102_417)">
<path id="Vector" d="M12.5 0C9.18555 0 6.00391 1.31777 3.66211 3.66113C1.3179 6.00542 0.000649355 9.18473 0 12.5C0 15.8139 1.31836 18.9955 3.66211 21.3389C6.00391 23.6822 9.18555 25 12.5 25C15.8145 25 18.9961 23.6822 21.3379 21.3389C23.6816 18.9955 25 15.8139 25 12.5C25 9.18613 23.6816 6.00449 21.3379 3.66113C18.9961 1.31777 15.8145 0 12.5 0Z" fill="url(#paint0_linear_102_417)"/>
<path id="Vector_2" d="M5.65813 12.3676C9.30266 10.7801 11.7323 9.73337 12.9472 9.22771C16.4198 7.78377 17.1406 7.53298 17.6113 7.52449C17.7148 7.52283 17.9452 7.54841 18.0956 7.67C18.2206 7.77253 18.2558 7.91121 18.2734 8.00857C18.289 8.10584 18.3105 8.32752 18.2929 8.50056C18.1054 10.4771 17.2909 15.2736 16.8769 17.4875C16.7031 18.4242 16.3573 18.7383 16.0234 18.7689C15.2968 18.8357 14.746 18.2892 14.0429 17.8285C12.9433 17.1072 12.3222 16.6584 11.2538 15.9547C10.0195 15.1414 10.8202 14.6943 11.5234 13.9638C11.707 13.7726 14.9062 10.8635 14.9667 10.5996C14.9745 10.5666 14.9823 10.4435 14.9081 10.3787C14.8359 10.3136 14.7284 10.3359 14.6503 10.3535C14.539 10.3785 12.7831 11.5402 9.37688 13.8385C8.87883 14.181 8.42766 14.348 8.02141 14.3392C7.5761 14.3297 6.71672 14.0869 6.07805 13.8795C5.2968 13.625 4.67375 13.4904 4.72844 13.0582C4.75579 12.8332 5.06633 12.6029 5.65813 12.3676Z" fill="white"/>
</g>
<defs>
<linearGradient id="paint0_linear_102_417" x1="1250" y1="0" x2="1250" y2="2500" gradientUnits="userSpaceOnUse">
<stop stop-color="#2AABEE"/>
<stop offset="1" stop-color="#229ED9"/>
</linearGradient>
<clipPath id="clip0_102_417">
<rect width="25" height="25" fill="white"/>
</clipPath>
</defs>
</svg>
