<svg width="25" height="18" viewBox="0 0 25 18" fill="none" xmlns="http://www.w3.org/2000/svg">
<g id="Group 31">
<path id="Vector" d="M24.4485 2.77729C24.305 2.24045 24.0253 1.75103 23.6371 1.35779C23.2488 0.964541 22.7657 0.681186 22.2357 0.535941C20.2955 0 12.4874 0 12.4874 0C12.4874 0 4.67897 0.0162641 2.73903 0.552205C2.20909 0.697474 1.72597 0.980839 1.33778 1.37408C0.949579 1.76733 0.66985 2.25673 0.526446 2.79355C-0.0604155 6.28569 -0.288096 11.6065 0.542501 14.9588C0.685906 15.4956 0.965634 15.985 1.35383 16.3783C1.74203 16.7715 2.22515 17.0549 2.75508 17.2001C4.69518 17.7361 12.5034 17.7361 12.5034 17.7361C12.5034 17.7361 20.3117 17.7361 22.2518 17.2001C22.7817 17.0549 23.2648 16.7715 23.653 16.3783C24.0412 15.985 24.321 15.4956 24.4644 14.9588C25.0832 11.4619 25.274 6.14427 24.4483 2.77744L24.4485 2.77729Z" fill="#FF0000"/>
<path id="Vector_2" d="M10.0015 12.6686L16.479 8.86807L10.0015 5.06738V12.6686Z" fill="white"/>
</g>
</svg>
