<?xml version="1.0" standalone="no"?>
<!DOCTYPE svg PUBLIC "-//W3C//DTD SVG 20010904//EN"
 "http://www.w3.org/TR/2001/REC-SVG-20010904/DTD/svg10.dtd">
<svg version="1.0" xmlns="http://www.w3.org/2000/svg"
 width="79.000000pt" height="88.000000pt" viewBox="0 0 79.000000 88.000000"
 preserveAspectRatio="xMidYMid meet">

<g transform="translate(0.000000,88.000000) scale(0.100000,-0.100000)"
fill="#000000" stroke="none">
<path d="M411 785 c-18 -8 -96 -79 -172 -158 l-139 -142 1 -70 0 -70 162 167
c89 91 172 171 184 177 40 20 82 13 114 -18 24 -24 29 -38 29 -76 0 -45 -4
-51 -72 -124 -235 -248 -269 -276 -284 -236 -4 10 45 68 142 170 82 86 153
167 158 180 12 31 -7 55 -43 55 -22 0 -60 -35 -197 -177 -94 -98 -176 -188
-182 -200 -7 -12 -12 -40 -12 -62 0 -33 7 -49 34 -79 32 -34 38 -37 91 -37
l56 0 185 190 c103 105 194 208 204 230 43 89 14 202 -68 259 -51 36 -137 45
-191 21z"/>
</g>
</svg>
